Coordinates
version=1
nRows=21
nColumns=27
inDegrees=yes

Units are S.I. units (second, meters, Newtons, ...)
If the header above contains a line with 'inDegrees', this indicates whether rotational values are in degrees (yes) or radians (no).

endheader
time	pelvis_rotation	pelvis_tilt	pelvis_list	pelvis_tx	pelvis_ty	pelvis_tz	hip_flexion_r	hip_adduction_r	hip_rotation_r	knee_angle_r	knee_rotation_r	knee_adduction_r	knee_angle_r_beta	ankle_angle_r	subtalar_angle_r	mtp_angle_r	hip_flexion_l	hip_adduction_l	hip_rotation_l	knee_angle_l	knee_rotation_l	knee_adduction_l	knee_angle_l_beta	ankle_angle_l	subtalar_angle_l	mtp_angle_l
      4.26000000	     14.68899375	    -36.22897947	      7.02849352	     -0.07380971	      0.56791650	     -1.17940771	    118.11192674	    -47.68042996	     14.40121653	     93.68155501	      0.00000000	   -705.39184823	      1.63505158	     13.32743814	      0.00000000	      0.00000000	    112.07031807	    -16.53744233	     10.55406555	     85.79547692	      0.00000000	     -9.88018448	      1.49741356	      8.29723771	      0.00000000	      0.00000000
      4.26500000	     14.65766583	    -36.28087511	      7.07255071	     -0.07431351	      0.56916203	     -1.17961239	    117.99907146	    -47.59901841	     14.28897259	     93.44541352	      0.00000000	   -705.50481676	      1.63093014	     13.19307089	      0.00000000	      0.00000000	    111.93116035	    -16.51266633	     10.45549138	     85.57958825	      0.00000000	     -9.87873275	      1.49364559	      8.25426604	      0.00000000	      0.00000000
      4.27000000	     14.62516210	    -36.28475582	      7.03892954	     -0.07476076	      0.57039567	     -1.17980278	    117.74036812	    -47.58163328	     14.04729818	     93.20714351	      0.00000000	   -705.60449299	      1.62677154	     13.10164741	      0.00000000	      0.00000000	    111.78072853	    -16.46065726	     10.42867231	     85.37898232	      0.00000000	     -9.87701123	      1.49014435	      8.18739850	      0.00000000	      0.00000000
      4.27500000	     13.56078509	    -36.20896871	      7.01660218	     -0.07567644	      0.57183159	     -1.17958989	    117.42065820	    -46.15874979	     14.17345718	     92.89909549	      0.00000000	   -705.96553449	      1.62139509	     12.96744010	      0.00000000	      0.00000000	    111.29960628	    -17.57032067	     10.01831269	     85.13652978	      0.00000000	     -9.73773711	      1.48591276	      8.11298153	      0.00000000	      0.00000000
      4.28000000	     14.55995632	    -36.32331790	      7.04406851	     -0.07571311	      0.57280474	     -1.18017641	    117.36064757	    -47.47894489	     13.70333238	     92.74286705	      0.00000000	   -705.80376921	      1.61866839	     12.89356151	      0.00000000	      0.00000000	    111.48230151	    -16.38765312	     10.31092663	     84.96483314	      0.00000000	     -9.87408545	      1.48291609	      8.07562107	      0.00000000	      0.00000000
      4.28500000	     14.52673258	    -36.34823311	      7.00906868	     -0.07615192	      0.57403403	     -1.18034390	    117.11437495	    -47.44719870	     13.45900344	     92.50081819	      0.00000000	   -705.89647109	      1.61444384	     12.80335003	      0.00000000	      0.00000000	    111.35192783	    -16.33826621	     10.29058327	     84.76273490	      0.00000000	     -9.87249037	      1.47938881	      8.02772573	      0.00000000	      0.00000000
      4.29000000	     14.48464719	    -36.37468506	      6.99110809	     -0.07659325	      0.57520406	     -1.18049306	    116.90984464	    -47.38959743	     13.26188173	     92.27368929	      0.00000000	   -705.99235403	      1.61047969	     12.71451237	      0.00000000	      0.00000000	    111.22277656	    -16.31655109	     10.24786653	     84.56396731	      0.00000000	     -9.87092982	      1.47591966	      7.98332584	      0.00000000	      0.00000000
      4.29500000	     14.46388003	    -36.38020157	      6.98124962	     -0.07703990	      0.57636224	     -1.18064209	    116.69503571	    -47.35879092	     13.06804854	     92.04665900	      0.00000000	   -706.07034497	      1.60651727	     12.62151406	      0.00000000	      0.00000000	    111.07563808	    -16.27224319	     10.20184618	     84.35795404	      0.00000000	     -9.86945992	      1.47232405	      7.90115322	      0.00000000	      0.00000000
      4.30000000	     13.50793377	    -36.23556021	      6.99034610	     -0.07783875	      0.57768776	     -1.18041513	    116.38185037	    -46.06775455	     13.26522394	     91.76862998	      0.00000000	   -706.39835880	      1.60166474	     12.48056118	      0.00000000	      0.00000000	    110.53115934	    -17.27011985	      9.77960762	     84.12254850	      0.00000000	     -9.72237020	      1.46821545	      7.88253268	      0.00000000	      0.00000000
      4.30500000	     14.43060449	    -36.43113799	      6.97183700	     -0.07791353	      0.57859772	     -1.18086957	    116.32462957	    -47.26809465	     12.72486386	     91.61842485	      0.00000000	   -706.25990872	      1.59904317	     12.43550651	      0.00000000	      0.00000000	    110.82217411	    -16.18581210	     10.11987762	     83.96323233	      0.00000000	     -9.86663199	      1.46543485	      7.81786897	      0.00000000	      0.00000000
      4.31000000	     14.40585390	    -36.38393207	      6.96121390	     -0.07826306	      0.57968081	     -1.18098534	    116.06550216	    -47.24010704	     12.55071644	     91.41026598	      0.00000000	   -706.33541999	      1.59541011	     12.36378667	      0.00000000	      0.00000000	    110.62259218	    -16.15480147	     10.06521063	     83.77243741	      0.00000000	     -9.86515112	      1.46210486	      7.77275809	      0.00000000	      0.00000000
      4.31500000	     13.24743844	    -36.28319116	      6.88828183	     -0.07910349	      0.58097923	     -1.18061788	    115.72676349	    -45.71102909	     12.72123047	     91.12235462	      0.00000000	   -706.69372922	      1.59038511	     12.22515830	      0.00000000	      0.00000000	    110.13192955	    -17.37536082	      9.63867477	     83.55417931	      0.00000000	     -9.71526995	      1.45829553	      7.71881528	      0.00000000	      0.00000000
      4.32000000	     14.39770460	    -36.37336595	      6.95933455	     -0.07902775	      0.58179713	     -1.18115083	    115.65261499	    -47.17884106	     12.23187835	     91.00666458	      0.00000000	   -706.48477639	      1.58836594	     12.20929653	      0.00000000	      0.00000000	    110.32069144	    -16.06105235	      9.97424336	     83.38417739	      0.00000000	     -9.86252680	      1.45532844	      7.66862769	      0.00000000	      0.00000000
      4.32500000	     14.38966371	    -36.36853247	      6.94423470	     -0.07938331	      0.58279437	     -1.18120817	    115.43982061	    -47.14922367	     12.06096979	     90.81620384	      0.00000000	   -706.55088975	      1.58504177	     12.15715351	      0.00000000	      0.00000000	    110.18791524	    -16.02198272	      9.94175302	     83.19971553	      0.00000000	     -9.86119401	      1.45210897	      7.58528404	      0.00000000	      0.00000000
      4.33000000	     14.38939939	    -36.36300075	      6.96668613	     -0.07971817	      0.58377387	     -1.18127007	    115.27650072	    -47.10868157	     11.95277113	     90.63372793	      0.00000000	   -706.62100559	      1.58185697	     12.07618751	      0.00000000	      0.00000000	    110.03601953	    -15.98909701	      9.87435540	     83.01732344	      0.00000000	     -9.85987931	      1.44892563	      7.56245416	      0.00000000	      0.00000000
      4.33500000	     14.39098778	    -36.34866911	      6.94806888	     -0.08003367	      0.58474906	     -1.18131565	    115.05312290	    -47.09256978	     11.77991479	     90.44774920	      0.00000000	   -706.69191212	      1.57861102	     12.00421530	      0.00000000	      0.00000000	    109.89426450	    -15.93714555	      9.85400586	     82.83794444	      0.00000000	     -9.85877562	      1.44579488	      7.51132989	      0.00000000	      0.00000000
      4.34000000	     14.39184771	    -36.30787216	      6.94587545	     -0.08031928	      0.58569501	     -1.18136444	    114.82792913	    -47.07418233	     11.63775684	     90.26927213	      0.00000000	   -706.75574697	      1.57549601	     11.94180539	      0.00000000	      0.00000000	    109.71956418	    -15.89319394	      9.81066017	     82.66080985	      0.00000000	     -9.85751473	      1.44270329	      7.46439252	      0.00000000	      0.00000000
      4.34500000	     13.22073812	    -36.22114374	      6.94435089	     -0.08111154	      0.58683393	     -1.18091688	    114.64721137	    -45.47557906	     12.00151190	     90.02378262	      0.00000000	   -707.11417540	      1.57121141	     11.80409592	      0.00000000	      0.00000000	    109.22341704	    -17.16425657	      9.29546711	     82.45124383	      0.00000000	     -9.70052479	      1.43904568	      7.39527250	      0.00000000	      0.00000000
      4.35000000	     14.39776766	    -36.26483589	      6.95544794	     -0.08085161	      0.58750365	     -1.18141327	    114.44086414	    -47.01657664	     11.38919749	     89.93719575	      0.00000000	   -706.87786929	      1.56970019	     11.87140033	      0.00000000	      0.00000000	    109.41607309	    -15.81872310	      9.72121654	     82.31335078	      0.00000000	     -9.85525732	      1.43663899	      7.35880472	      0.00000000	      0.00000000
      4.35500000	     13.31832349	    -36.15714510	      6.95486292	     -0.08154753	      0.58858980	     -1.18101994	    114.24811880	    -45.55021196	     11.73981696	     89.70079047	      0.00000000	   -707.21634789	      1.56557414	     11.71481567	      0.00000000	      0.00000000	    108.91898871	    -16.97809013	      9.24372677	     82.11568292	      0.00000000	     -9.69564176	      1.43318903	      7.32249287	      0.00000000	      0.00000000
      4.36000000	     14.41237020	    -36.22021128	      6.95719706	     -0.08130117	      0.58926384	     -1.18146213	    114.05270507	    -46.98258374	     11.13220352	     89.61356147	      0.00000000	   -707.00182887	      1.56405170	     11.72641965	      0.00000000	      0.00000000	    109.12463897	    -15.73191717	      9.64846002	     81.98541856	      0.00000000	     -9.85302409	      1.43091549	      7.27438639	      0.00000000	      0.00000000
